<svg xmlns="http://www.w3.org/2000/svg" xmlns:xlink="http://www.w3.org/1999/xlink" viewBox="162.62 414.93 688.44 173.08">
	<defs>
		<linearGradient id="gradient_0" gradientUnits="userSpaceOnUse" x1="532.34875" y1="575.6405" x2="533.25543" y2="424.94739">
			<stop offset="0" stop-color="#006780"/>
			<stop offset="1" stop-color="#69ccf1"/>
		</linearGradient>
	</defs>
	<path fill="url(#gradient_0)" d="M536.997 424.25C537.311 424.226 537.623 424.197 537.937 424.178C550.826 423.411 569.382 429.723 579.11 438.285C586.507 444.796 591.509 453.808 593.925 463.314C597.313 476.643 596.452 492.864 596.396 506.617C596.356 521.875 596.415 537.133 596.572 552.389C596.663 559.185 596.435 566.118 596.908 572.893L596.948 573.428C585.653 573.475 574.357 573.436 563.062 573.311C562.922 567.188 562.783 561.089 562.979 554.965C557.249 561.122 551.623 567.599 543.916 571.317C530.305 577.884 511.64 578.869 497.392 573.887C487.124 570.297 477.519 562.683 472.709 552.782C469.956 546.313 468.416 539.048 468.61 532.008C468.93 520.382 473.048 508.533 481.759 500.484C499.845 483.774 539.766 484.993 563.119 485.923C563.391 477.85 563.518 470.149 558.349 463.356C554.476 458.265 548.694 455.682 542.499 454.781C538.273 454.167 533.909 454.334 529.653 454.43C512.45 454.82 508.083 460.641 495.237 470.165C489.303 463.877 484.309 455.8 479.327 448.72C480.722 446.806 482.202 444.911 483.801 443.162C498.019 427.61 517.048 425.228 536.997 424.25ZM504.478 538.814C510.849 545.828 516.622 549.538 526.289 549.99C531.01 550.211 535.217 549.339 539.633 547.696C549.381 543.409 557.202 537.081 561.335 526.978C563.801 520.948 562.215 516.364 562.815 510.345C550.588 510.361 538.003 509.788 525.814 510.67C518.806 511.959 510.9 514.091 506.523 520.21C503.222 524.823 502.771 530.833 503.83 536.277C503.997 537.134 504.231 537.977 504.478 538.814Z"/>
	<defs>
		<linearGradient id="gradient_1" gradientUnits="userSpaceOnUse" x1="227.85033" y1="571.77246" x2="244.48882" y2="416.23138">
			<stop offset="0" stop-color="#006780"/>
			<stop offset="1" stop-color="#69ccf1"/>
		</linearGradient>
	</defs>
	<path fill="url(#gradient_1)" d="M217.412 416.599C226.57 413.133 250.06 415.792 259.752 417.972C263.057 417.932 267.151 419.843 270.201 421.052C274.407 422.719 288.298 428.743 289.992 432.636C289.211 438.333 281.852 452.005 278.23 456.748C277.678 457.469 276.942 458.159 275.98 458.191C272.175 458.318 260.698 451.467 256.564 449.847C248.066 446.519 237.801 445.335 228.767 446.65C223.888 447.36 218.788 449.4 215.836 453.544C212.92 457.638 213.298 462.074 214.173 466.731C223.036 479.595 242.508 480.83 256.564 484.551C263.292 486.333 270.203 488.828 276.241 492.327C286.019 497.993 292.929 506.031 295.787 517.04C298.814 528.701 296.514 543.174 290.313 553.464C285.759 561.021 279.942 565.995 272.259 570.161C266.082 573.51 259.169 574.757 252.175 574.823C234.004 574.992 218.741 566.687 202.827 558.955C197.507 556.37 192.199 553.676 186.448 552.179C178.49 550.108 170.569 550.285 162.623 552.193C163.966 550.757 165.388 549.423 166.854 548.115C181.814 534.765 200.934 531.684 219.492 539.374C226.749 542.381 233.716 546.794 241.771 547.088C247.697 547.304 253.002 545.601 257.346 541.427C259.619 539.244 260.507 534.916 260.483 531.885C260.346 514.391 223.561 513.249 211.163 509.442C202.454 506.767 193.729 502.401 187.349 495.767C177.605 485.634 175.576 474.645 175.823 461.068C176.045 448.947 180.455 438.234 189.279 429.839C196.362 423.101 207.255 416.359 217.412 416.599Z"/>
	<path fill="#69ccf1" d="M217.412 416.599C226.57 413.133 250.06 415.792 259.752 417.972C258.18 418.062 256.732 417.938 255.484 419.03C255.314 421.592 271.595 423.97 274.412 427.451L274.189 428.241L270.687 427.255C266.729 428.581 260.848 427.303 256.971 425.966C254.205 425.012 248.397 422.844 247.114 420.249L247.749 419.563C250.072 419.061 250.83 420.498 253.007 420.428C253.637 419.395 253.76 419.242 253.743 418.047C249.706 416.496 243.854 416.509 239.647 417.313L239.626 417.726C240.866 418.256 242.063 418.835 243.264 419.445L243.443 420.06C243.096 420.358 243.008 420.472 242.527 420.666C238.365 422.347 224.605 422.688 220.427 420.813C220.827 419.575 223.387 419.386 224.386 417.987C223.613 416.934 223.19 416.874 222.024 416.338C220.417 416.616 219.042 416.685 217.412 416.599Z"/>
	<defs>
		<linearGradient id="gradient_2" gradientUnits="userSpaceOnUse" x1="385.013" y1="517.29681" x2="377.52789" y2="424.7551">
			<stop offset="0" stop-color="#028397"/>
			<stop offset="1" stop-color="#69ccf1"/>
		</linearGradient>
	</defs>
	<path fill="url(#gradient_2)" d="M314.155 507.94C314.03 484.227 317.84 462.21 335.297 444.667C348.599 431.3 365.22 424.166 384.112 424.237C402.614 424.307 419.068 429.776 432.252 443.074C442.426 453.336 450.978 471.728 452.54 486.04C453.486 494.708 452.926 504.128 452.856 512.856L452.848 513.497L379.499 513.503C374.069 513.496 354.172 512.651 350.326 513.81C342.911 516.394 318.535 507.418 315.531 507.971C314.583 508.146 315.584 508.186 314.155 507.94ZM350.16 485.504L387.625 485.548L419.754 485.557C418.557 475.362 414.107 465.993 405.983 459.55C399.495 454.405 391.102 452.793 382.989 453.732C372.982 454.759 363.813 459.778 357.557 467.655C353.73 472.429 350.595 478.831 350.198 484.989L350.16 485.504Z"/>
	<path fill="#69ccf1" d="M799.287 450.463C805.248 440.256 813.063 430.737 824.951 427.597C833.57 425.32 842.227 426.025 850.932 427.338C850.951 438.58 851.392 450.015 850.569 461.228C840.126 458.395 830.431 457.034 820.521 462.649C817.163 464.552 814.311 467.09 811.442 469.646C802.034 479.268 800.086 488.605 799.009 501.673C798.605 503.297 798.397 505.614 797.196 506.741C786.683 507.651 776.011 507.251 765.453 508.242L765.452 463.13L765.375 427.958C775.989 427.829 788.321 428.697 798.747 427.565C798.988 435.146 798.494 442.936 799.287 450.463Z"/>
	<path fill="#028397" d="M765.452 463.13L765.943 463.263C778.709 466.807 788.845 472.608 802.584 471.389C805.685 471.114 808.555 470.906 811.442 469.646C802.034 479.268 800.086 488.605 799.009 501.673C798.605 503.297 798.397 505.614 797.196 506.741C786.683 507.651 776.011 507.251 765.453 508.242L765.452 463.13Z"/>
	<path fill="#006780" d="M314.155 507.94C315.584 508.186 314.583 508.146 315.531 507.971C318.535 507.418 342.911 516.394 350.326 513.81C349.736 521.695 352.32 528.031 357.354 534.056C363.92 541.914 373.845 547.377 384.07 548.279C399.974 549.683 411.845 542.586 423.66 532.736C428.802 536.1 440.922 548.049 443.5 553.547C443.223 554.86 442.404 555.608 441.5 556.544C427.284 571.249 405.696 577.391 385.831 577.514C366.082 577.636 347.431 571.003 333.321 556.897C321.228 544.807 314.148 524.925 314.155 507.94Z"/>
	<path fill="#028397" d="M694.017 457.085C700.138 456.774 706.453 457.297 712.615 457.187C720.888 457.041 729.736 455.941 737.933 456.848C730.174 464.943 723.665 474.344 716.516 482.998C700.128 502.837 683.807 522.643 667.761 542.764C665.374 546.159 650.326 550.104 645.759 550.887C639.175 552.016 628.197 553.288 622.143 550.169L621.744 549.62C622.94 547.39 625.791 545.106 625.834 542.598C628.385 538.134 633.122 533.757 636.433 529.666C650.814 511.9 665.632 494.461 679.747 476.49C683.869 471.242 688.847 466.153 692.537 460.64C693.296 459.506 693.697 458.4 694.017 457.085Z"/>
	<path fill="#69ccf1" d="M621.954 427.935C635.041 426.714 648.779 427.983 661.921 428.043L740.481 428.021C740.409 434.922 741.682 447.514 739.918 453.758C739.583 454.945 738.719 455.928 737.933 456.848C729.736 455.941 720.888 457.041 712.615 457.187C706.453 457.297 700.138 456.774 694.017 457.085C679.417 455.935 664.398 457.107 649.762 457.276C640.387 457.384 630.92 456.592 621.578 457.072C622.973 447.862 622.014 437.298 621.954 427.935Z"/>
	<path fill="#006780" d="M625.834 542.598C625.791 545.106 622.94 547.39 621.744 549.62L622.143 550.169C628.197 553.288 639.175 552.016 645.759 550.887C650.326 550.104 665.374 546.159 667.761 542.764C676.541 543.439 685.579 543.057 694.388 543.07L741.447 543.029C741.521 553.042 741.542 563.057 741.51 573.071C732.798 574.37 723.095 573.484 714.245 573.464L648.442 573.432C640.417 573.424 627.798 572.511 620.482 573.316L620.512 548.509C622.201 546.488 623.822 544.308 625.834 542.598Z"/>
	<path fill="#006780" d="M765.453 508.242C776.011 507.251 786.683 507.651 797.196 506.741C798.397 505.614 798.605 503.297 799.009 501.673C799.599 509.421 799.368 517.26 799.464 525.03C799.667 541.144 799.681 557.26 799.505 573.374C793.173 573.126 786.84 573.457 780.506 573.412C775.535 573.377 770.343 572.911 765.396 573.295L765.453 508.242Z"/>
	<path fill="#01516C" d="M192.641 566.976C201.779 571.662 210.566 575.764 220.398 578.854C231.046 582.2 240.236 584.748 251.525 583.751C253.243 583.599 255.979 583.583 257.463 582.682C258.372 582.131 257.422 582.445 258.753 582.173C258.339 582.965 257.99 583.065 257.265 583.55C246.251 588.411 232.216 589.358 220.614 586.099C211.351 583.497 197.48 575.663 192.641 566.976Z"/>
</svg>